<?xml version="1.0" encoding="UTF-8" standalone="no"?>
<!-- Generator: Adobe Illustrator 16.0.0, SVG Export Plug-In . SVG Version: 6.00 Build 0)  -->

<svg
   xmlns:dc="http://purl.org/dc/elements/1.1/"
   xmlns:cc="http://creativecommons.org/ns#"
   xmlns:rdf="http://www.w3.org/1999/02/22-rdf-syntax-ns#"
   xmlns:svg="http://www.w3.org/2000/svg"
   xmlns="http://www.w3.org/2000/svg"
   xmlns:sodipodi="http://sodipodi.sourceforge.net/DTD/sodipodi-0.dtd"
   xmlns:inkscape="http://www.inkscape.org/namespaces/inkscape"
   version="1.1"
   id="Layer_1"
   x="0px"
   y="0px"
   width="557"
   height="753"
   viewBox="0 0 557 753"
   enable-background="new 0 0 1224 792"
   xml:space="preserve"
   inkscape:version="0.91 r13725"
   sodipodi:docname="accessibility_icon_white.svg"
   style="fill:#ffffff"><metadata
     id="metadata15"><rdf:RDF><cc:Work
         rdf:about=""><dc:format>image/svg+xml</dc:format><dc:type
           rdf:resource="http://purl.org/dc/dcmitype/StillImage" /><dc:title></dc:title></cc:Work></rdf:RDF></metadata><defs
     id="defs13" /><sodipodi:namedview
     pagecolor="#ffffff"
     bordercolor="#666666"
     borderopacity="1"
     objecttolerance="10"
     gridtolerance="10"
     guidetolerance="10"
     inkscape:pageopacity="0"
     inkscape:pageshadow="2"
     inkscape:window-width="1366"
     inkscape:window-height="709"
     id="namedview11"
     showgrid="false"
     inkscape:zoom="0.2979798"
     inkscape:cx="264.60365"
     inkscape:cy="317.25965"
     inkscape:window-x="0"
     inkscape:window-y="30"
     inkscape:window-maximized="1"
     inkscape:current-layer="Layer_1"
     fit-margin-bottom="2.7755576e-17" /><g
     id="g3"
     transform="translate(-305.32203,-35.644068)"><path
       d="m 529.63672,115.41602 c -16.78888,0.63465 -26.71341,16.20911 -38.76435,25.68156 -23.6729,21.85326 -49.2539,41.77672 -71.29034,65.31844 -10.2673,16.88564 2.74354,42.65338 23.08985,42.49023 13.1043,0.8612 23.4779,-8.40721 31.91084,-17.18603 19.78954,-17.65147 39.57867,-35.30339 59.36845,-52.9546 23.55521,13.67507 47.10889,27.35277 70.66211,41.03126 -35.16709,40.0504 -70.33268,80.10213 -105.5,120.15234 -34.0876,4.83647 -66.91529,19.60323 -93.31445,41.89648 11.92666,11.84101 23.5758,23.94462 35.69726,35.53516 47.48582,-38.58674 121.93144,-38.84053 169.12502,0.38982 41.32286,32.64436 61.62951,90.47134 47.01237,141.47355 -4.74569,18.01951 -13.17085,35.08837 -24.76043,49.69132 11.92036,11.87823 23.7063,23.88668 35.71679,35.65039 47.59996,-55.38094 57.52783,-139.69631 23.64063,-204.38282 -1.8464,-3.77323 -3.78869,-7.4983 -5.69336,-11.24218 26.15312,-1.45605 52.30601,-2.91632 78.45898,-4.375 -3.87559,58.3236 -10.97966,116.4637 -13.0332,174.83594 3.79477,19.58911 31.38558,29.78318 46.14453,15.47851 10.06218,-8.37402 11.35585,-22.2876 11.24009,-34.46285 4.77509,-63.85099 11.55668,-127.58322 14.70718,-191.50395 -2.974,-16.53717 -21.83354,-26.6966 -37.61369,-22.48346 -49.82536,2.77546 -99.6509,5.54795 -149.47616,8.32526 30.87981,-36.98126 64.64058,-71.53394 94.3418,-109.4375 8.97577,-17.28016 0.58529,-41.55568 -18.18774,-48.18701 -58.80671,-33.43059 -116.30235,-69.31044 -176.0271,-100.94776 -2.43688,-0.58633 -4.94967,-0.84825 -7.45508,-0.7871 z"
       id="path5"
       inkscape:connector-curvature="0" /><path
       d="m 761.55618,82.359904 c -39.69053,1.344918 -72.62996,41.264366 -64.6231,79.449356 5.8629,35.0699 42.94661,62.60836 79.29665,55.94367 32.55958,-4.67922 60.30429,-34.08087 59.3613,-66.8979 0.37089,-30.6647 -22.37721,-60.296618 -53.37442,-66.638358 -6.75031,-1.64517 -13.72492,-2.096002 -20.66043,-1.856768 z"
       id="path7"
       inkscape:connector-curvature="0" /><path
       d="m 371.89648,419.13477 c -43.38923,61.93774 -43.54441,150.49983 0.80274,212.20703 38.81293,55.91164 109.67117,88.24473 177.29492,78.17187 29.08114,-3.85141 57.4655,-14.54518 81.60742,-31.34179 -12.0931,-12.09245 -24.1862,-24.1849 -36.27929,-36.27735 -52.76576,32.51729 -127.73993,22.12311 -169.17232,-24.15901 -36.08241,-38.31797 -47.53294,-98.44655 -25.73003,-146.72575 2.34828,-5.47553 5.05332,-10.79923 8.10547,-15.91602 -12.29171,-11.86605 -23.86889,-24.73659 -36.62891,-35.95898 z"
       id="path9"
       inkscape:connector-curvature="0" /></g></svg>