<?xml version="1.0" encoding="UTF-8" standalone="no"?>
<svg
   xmlns:dc="http://purl.org/dc/elements/1.1/"
   xmlns:cc="http://creativecommons.org/ns#"
   xmlns:rdf="http://www.w3.org/1999/02/22-rdf-syntax-ns#"
   xmlns:svg="http://www.w3.org/2000/svg"
   xmlns="http://www.w3.org/2000/svg"
   xmlns:sodipodi="http://sodipodi.sourceforge.net/DTD/sodipodi-0.dtd"
   xmlns:inkscape="http://www.inkscape.org/namespaces/inkscape"
   version="1.1"
   width="306.65"
   height="341.73"
   id="svg2"
   inkscape:version="0.91 r13725"
   sodipodi:docname="social-diaspora.svg">
  <sodipodi:namedview
     pagecolor="#ffffff"
     bordercolor="#666666"
     borderopacity="1"
     objecttolerance="10"
     gridtolerance="10"
     guidetolerance="10"
     inkscape:pageopacity="0"
     inkscape:pageshadow="2"
     inkscape:window-width="783"
     inkscape:window-height="480"
     id="namedview8"
     showgrid="false"
     inkscape:zoom="0.69060367"
     inkscape:cx="153.325"
     inkscape:cy="170.86501"
     inkscape:window-x="0"
     inkscape:window-y="30"
     inkscape:window-maximized="0"
     inkscape:current-layer="svg2" />
  <defs
     id="defs4190" />
  <title
     id="title2983">Diaspora* artwork</title>
  <metadata
     id="metadata7">
    <rdf:RDF>
      <cc:Work
         rdf:about="">
        <dc:format>image/svg+xml</dc:format>
        <dc:type
           rdf:resource="http://purl.org/dc/dcmitype/StillImage" />
        <dc:title>Diaspora* artwork</dc:title>
        <cc:license
           rdf:resource="http://creativecommons.org/licenses/by-nc-sa/3.0/" />
        <dc:identifier>diaspora</dc:identifier>
      </cc:Work>
      <cc:License
         rdf:about="http://creativecommons.org/licenses/by-nc-sa/3.0/">
        <cc:permits
           rdf:resource="http://creativecommons.org/ns#Reproduction" />
        <cc:permits
           rdf:resource="http://creativecommons.org/ns#Distribution" />
        <cc:requires
           rdf:resource="http://creativecommons.org/ns#Notice" />
        <cc:requires
           rdf:resource="http://creativecommons.org/ns#Attribution" />
        <cc:prohibits
           rdf:resource="http://creativecommons.org/ns#CommercialUse" />
        <cc:permits
           rdf:resource="http://creativecommons.org/ns#DerivativeWorks" />
        <cc:requires
           rdf:resource="http://creativecommons.org/ns#ShareAlike" />
      </cc:License>
    </rdf:RDF>
  </metadata>
  <g
     transform="translate(-227.54415,-361.67697)"
     id="layer1"
     style="fill:#ffffff;fill-opacity:1">
    <path
       style="fill:#ffffff;fill-opacity:1"
       d="m 368.6616,621.147 c -6.8473,-5.2847 -8.9753,-10.089 -10.8,-24.383 -1.8592,-14.563 -4.5847,-43.407 -4.5847,-48.519 0,-2.0645 -0.46346,-4.04 -1.0299,-4.3901 -1.7956,-1.1098 -10.239,4.6108 -16.97,11.498 -7.7471,7.9264 -18.517,16.503 -23.157,18.441 -7.6568,3.1979 -18.6,4.6722 -26.928,3.6279 -8.7388,-1.0958 -10.337,-1.7123 -13.664,-5.2707 -4.7887,-5.1213 -5.4372,-22.144 -1.2494,-32.793 3.3188,-8.4396 5.7726,-10.866 19.637,-19.419 22.617,-13.952 29.297,-18.572 28.784,-19.909 -0.26915,-0.7014 -2.9553,-2.7698 -5.9693,-4.5964 -3.014,-1.8267 -14.136,-10.222 -24.716,-18.657 -16.997,-13.55 -20.023,-16.417 -25.99,-24.62 -7.7138,-10.604 -9.2957,-14.634 -8.314,-21.18 1.7705,-11.807 16.565,-18.167 30.557,-13.138 10.083,3.6244 38.05,20.031 58.44,34.284 3.2613,2.2797 6.3512,3.8845 6.8663,3.5661 0.55363,-0.34217 0.63559,-3.49 0.20042,-7.698 -1.1626,-11.242 -0.56326,-52.48 0.90556,-62.313 2.0191,-13.516 6.5415,-20.483 15.138,-23.32 7.6034,-2.5093 16.583,2.2209 20.204,10.643 3.5711,8.3059 4.4254,19.399 4.0786,52.965 -0.17747,17.176 0.005,31.559 0.40504,31.962 1.2485,1.2563 9.5589,-2.5423 15.545,-7.1053 3.1503,-2.4015 10.823,-9.0256 17.051,-14.72 12.473,-11.405 25.125,-19.949 32.395,-21.877 4.4562,-1.182 5.0578,-1.0893 10.825,1.6673 7.3598,3.5177 13.569,9.8975 14.509,14.908 0.39642,2.1131 -0.0336,7.5546 -1.0379,13.132 -2.0212,11.225 -3.446,13.308 -13.962,20.404 -5.9735,4.0309 -28.915,22.235 -33.343,26.457 -1.0358,0.98776 3.3775,4.4622 22.385,17.623 35.056,24.273 35.388,24.648 35.4,39.994 0.008,10.769 -2.6353,15.827 -9.4944,18.168 -7.2788,2.4838 -14.289,2.2827 -19.601,-0.56242 -3.85,-2.0621 -27.668,-17.601 -45.399,-29.618 l -6,-4.0665 -0.68515,4.2703 c -0.37683,2.3487 -0.97342,18.895 -1.3258,36.77 -0.73145,37.109 -1.3268,42.036 -5.4331,44.96 -4.1834,2.9788 -13.438,5.0399 -22.631,5.0399 -6.9011,0 -8.5986,-0.34235 -11.04,-2.2265 z m 22.741,-15.338 3.0263,-1.565 -0.63283,-19.685 c -0.67812,-21.094 -2.1706,-51.595 -3.1696,-64.773 -0.57423,-7.5755 -0.466,-8.2253 1.7073,-10.25 1.2762,-1.189 3.1717,-2.1618 4.2121,-2.1618 5.2263,0 30.066,14.893 65.582,39.32 6.9118,4.7538 10.273,4.8341 13.068,0.31196 2.6959,-4.362 2.6245,-5.8544 -0.5062,-10.585 -2.5893,-3.9127 -20.566,-16.536 -43.912,-30.836 -11.597,-7.103 -16.5,-11.289 -16.5,-14.088 0,-1.142 1.8104,-3.4337 4.25,-5.38 2.3375,-1.8648 9.8157,-7.8174 16.618,-13.228 29.287,-23.294 38.124,-36.774 27.852,-42.484 -2.5479,-1.4165 -3.0484,-1.3706 -6.6978,0.61462 -5.9281,3.2248 -41.002,27.421 -57.334,39.552 -6.4155,4.7655 -8.5154,5.8024 -11.75,5.8024 -5.0463,0 -7.6226,-2.5228 -8.3511,-8.1779 -0.30624,-2.3771 -0.70908,-20.747 -0.89521,-40.822 -0.35111,-37.868 -0.67329,-40.849 -4.6443,-42.974 -4.5183,-2.4181 -7.0795,1.651 -8.481,13.474 -1.1413,9.6286 -3.5705,66.232 -2.9711,69.229 0.33294,1.6647 0.0665,4.0334 -0.59204,5.264 -2.3374,4.3675 -10.911,0.84301 -26.968,-11.087 -11.271,-8.3735 -44.457,-29.763 -49.944,-32.19 -5.1307,-2.2696 -13.495,-2.7044 -16.842,-0.87563 -1.6419,0.89726 -2.25,2.1363 -2.25,4.5844 0,7.5381 19.921,28.234 40,41.557 24.293,16.119 32.191,22.639 34.308,28.324 1.1408,3.0632 -3.7184,6.3483 -24.126,16.311 -20.991,10.248 -27.302,15.027 -31.21,23.635 -5.4539,12.015 1.0192,23.026 12.523,21.301 9.8923,-1.4834 19.172,-7.9636 43.217,-30.18 6.0285,-5.57 11.952,-10.657 13.162,-11.305 4.1306,-2.2106 7.4059,0.38337 9.9876,7.91 0.65603,1.9126 1.8618,13.388 2.6794,25.5 3.1156,46.153 4.9023,51.523 17.143,51.523 2.9781,0 6.7766,-0.70423 8.4411,-1.565 z"
       id="path2996" />
  </g>
</svg>
